<svg width="82" height="100" viewBox="0 0 82 100" fill="#0069d9" xmlns="http://www.w3.org/2000/svg">
<path d="M70.2915 22.3202H67.3728C69.4195 20.7187 70.9155 18.5184 71.6522 16.0261C72.3889 13.5339 72.3297 10.8738 71.4826 8.41687C70.6356 5.95991 69.0431 3.82846 66.927 2.31969C64.8109 0.810913 62.2768 0 59.678 0C57.0791 0 54.545 0.810913 52.4289 2.31969C50.3129 3.82846 48.7203 5.95991 47.8733 8.41687C47.0263 10.8738 46.967 13.5339 47.7037 16.0261C48.4404 18.5184 49.9364 20.7187 51.9832 22.3202H49.0801C47.4932 22.3442 45.9314 22.7191 44.5065 23.418C43.0817 24.1169 41.8292 25.1226 40.839 26.3627C39.8479 25.1246 38.5949 24.1214 37.17 23.4251C35.7451 22.7288 34.1837 22.3568 32.5979 22.3358H29.6792C31.7259 20.7343 33.2219 18.534 33.9587 16.0417C34.6954 13.5495 34.6361 10.8894 33.7891 8.43248C32.942 5.97552 31.3495 3.84407 29.2334 2.3353C27.1174 0.826521 24.5833 0.0156081 21.9844 0.0156081C19.3855 0.0156081 16.8514 0.826521 14.7354 2.3353C12.6193 3.84407 11.0267 5.97552 10.1797 8.43248C9.33269 10.8894 9.27341 13.5495 10.0101 16.0417C10.7469 18.534 12.2429 20.7343 14.2896 22.3358H11.3865C5.14326 22.3358 0.00819239 28.0952 0.00819239 35.1813V52.5531C-0.0852682 54.5717 0.623957 56.5452 1.98093 58.0426C3.33791 59.5399 5.23233 60.4394 7.25035 60.5445C7.59062 60.5312 7.92959 60.4947 8.26488 60.4352V80.3511C8.26488 85.533 12.042 89.716 16.6776 89.716C18.485 89.7087 20.2338 89.0742 21.6254 87.9211C23.3658 91.5393 26.0924 94.5925 29.4915 96.7294C32.8906 98.8663 36.824 100 40.839 100C44.854 100 48.7874 98.8663 52.1865 96.7294C55.5856 94.5925 58.3122 91.5393 60.0526 87.9211C61.4442 89.0742 63.193 89.7087 65.0003 89.716C69.6827 89.716 73.4131 85.5174 73.4131 80.3511V60.4352C73.7484 60.4947 74.0873 60.5312 74.4276 60.5445C76.4456 60.4394 78.3401 59.5399 79.697 58.0426C81.054 56.5452 81.7632 54.5717 81.6698 52.5531V35.1813C81.6698 28.0952 76.5659 22.3202 70.2915 22.3202ZM59.6936 6.35313C60.9284 6.35313 62.1354 6.71929 63.1621 7.4053C64.1888 8.09132 64.989 9.06638 65.4616 10.2072C65.9341 11.348 66.0577 12.6033 65.8168 13.8144C65.5759 15.0254 64.9813 16.1379 64.1082 17.011C63.2351 17.8841 62.1226 18.4788 60.9116 18.7196C59.7005 18.9605 58.4452 18.8369 57.3044 18.3644C56.1636 17.8918 55.1885 17.0916 54.5025 16.0649C53.8165 15.0382 53.4503 13.8312 53.4503 12.5964C53.4503 10.9406 54.1081 9.35256 55.2789 8.18173C56.4498 7.0109 58.0378 6.35313 59.6936 6.35313V6.35313ZM21.9844 6.35313C23.2192 6.35313 24.4263 6.71929 25.453 7.4053C26.4797 8.09132 27.2799 9.06638 27.7524 10.2072C28.2249 11.348 28.3486 12.6033 28.1077 13.8144C27.8668 15.0254 27.2722 16.1379 26.399 17.011C25.5259 17.8841 24.4135 18.4788 23.2024 18.7196C21.9913 18.9605 20.736 18.8369 19.5952 18.3644C18.4544 17.8918 17.4793 17.0916 16.7933 16.0649C16.1073 15.0382 15.7412 13.8312 15.7412 12.5964C15.7412 10.9406 16.3989 9.35256 17.5698 8.18173C18.7406 7.0109 20.3286 6.35313 21.9844 6.35313ZM29.4763 35.1969V60.5757C27.8627 61.5922 26.3929 62.8206 25.106 64.228V51.8663C25.1888 51.0384 24.9393 50.2116 24.4124 49.5676C23.8856 48.9236 23.1245 48.5154 22.2966 48.4326C21.4687 48.3498 20.6418 48.5993 19.9978 49.1261C19.3539 49.653 18.9456 50.4141 18.8628 51.242C18.8389 51.4547 18.8389 51.6693 18.8628 51.882V80.3667C18.8747 81.1453 18.6457 81.9085 18.2072 82.5519C18.0449 82.8249 17.8173 83.0534 17.5449 83.2168C17.2725 83.3803 16.9638 83.4736 16.6464 83.4884C15.4914 83.4884 14.4769 82.0212 14.4769 80.3667V35.1813C14.4769 34.3534 14.148 33.5594 13.5626 32.974C12.9772 32.3886 12.1832 32.0597 11.3553 32.0597C10.5274 32.0597 9.73338 32.3886 9.14796 32.974C8.56255 33.5594 8.23366 34.3534 8.23366 35.1813V52.5531C8.23366 53.5988 7.62495 54.3012 7.21913 54.3012C6.81332 54.3012 6.22022 53.5988 6.22022 52.5531V35.1813C6.22022 31.529 8.53021 28.5791 11.3553 28.5791H32.5979C35.423 28.5791 37.7174 31.529 37.7174 35.1813V52.5531C37.7174 53.5988 37.1086 54.3012 36.7184 54.3012C36.3282 54.3012 35.7351 53.6301 35.7195 52.6155V35.1813C35.7195 34.3534 35.3906 33.5594 34.8052 32.974C34.2198 32.3886 33.4258 32.0597 32.5979 32.0597C31.77 32.0597 30.976 32.3886 30.3906 32.974C29.8052 33.5594 29.4763 34.3534 29.4763 35.1813V35.1969ZM50.0634 83.4571C50.3772 83.7405 50.6302 84.0847 50.807 84.4689C50.9838 84.853 51.0808 85.269 51.0919 85.6917C51.1031 86.1145 51.0282 86.535 50.8719 86.9279C50.7156 87.3209 50.4811 87.6779 50.1826 87.9775C49.8841 88.277 49.5279 88.5128 49.1355 88.6705C48.7432 88.8282 48.3229 88.9045 47.9001 88.8949C47.4774 88.8852 47.061 88.7898 46.6762 88.6143C46.2915 88.4389 45.9464 88.1871 45.6619 87.8742L40.839 83.0669L36.0161 87.8742C35.4213 88.4113 34.6428 88.699 33.8418 88.6779C33.0407 88.6567 32.2785 88.3284 31.7129 87.7607C31.1472 87.1931 30.8216 86.4297 30.8033 85.6286C30.785 84.8275 31.0755 84.05 31.6146 83.4571L36.4219 78.6498L31.6146 73.8269C31.2878 73.5471 31.0224 73.2027 30.835 72.8154C30.6477 72.4282 30.5424 72.0063 30.5258 71.5764C30.5092 71.1465 30.5816 70.7178 30.7386 70.3172C30.8955 69.9167 31.1335 69.5528 31.4378 69.2486C31.742 68.9444 32.1058 68.7064 32.5064 68.5494C32.907 68.3925 33.3357 68.32 33.7656 68.3366C34.1955 68.3532 34.6173 68.4585 35.0046 68.6459C35.3919 68.8333 35.7362 69.0987 36.0161 69.4255L40.839 74.2328L45.6619 69.4255C45.9417 69.0987 46.2861 68.8333 46.6734 68.6459C47.0607 68.4585 47.4825 68.3532 47.9124 68.3366C48.3423 68.32 48.771 68.3925 49.1716 68.5494C49.5722 68.7064 49.936 68.9444 50.2402 69.2486C50.5444 69.5528 50.7825 69.9167 50.9394 70.3172C51.0964 70.7178 51.1688 71.1465 51.1522 71.5764C51.1356 72.0063 51.0303 72.4282 50.8429 72.8154C50.6555 73.2027 50.3901 73.5471 50.0634 73.8269L45.2561 78.6498L50.0634 83.4571ZM75.4265 52.5531C75.4265 53.5988 74.8178 54.3012 74.4276 54.3012C74.0374 54.3012 73.4131 53.5988 73.4131 52.5531V35.1813C73.4131 34.3534 73.0842 33.5594 72.4988 32.974C71.9134 32.3886 71.1194 32.0597 70.2915 32.0597C69.4636 32.0597 68.6696 32.3886 68.0841 32.974C67.4987 33.5594 67.1698 34.3534 67.1698 35.1813V80.3511C67.1698 82.0212 66.1553 83.4727 65.0003 83.4727C63.8453 83.4727 62.8152 82.0212 62.8152 80.3511V51.882C62.839 51.6693 62.839 51.4547 62.8152 51.242C62.7742 50.8321 62.6529 50.4342 62.4581 50.0712C62.2634 49.7081 61.999 49.387 61.6802 49.1261C61.3613 48.8653 60.9942 48.6697 60.5998 48.5507C60.2053 48.4317 59.7913 48.3916 59.3814 48.4326C58.9715 48.4736 58.5736 48.5949 58.2106 48.7896C57.8475 48.9844 57.5264 49.2487 57.2655 49.5676C57.0046 49.8865 56.8091 50.2536 56.6901 50.648C56.5711 51.0424 56.531 51.4564 56.5719 51.8663V64.228C55.2851 62.8206 53.8152 61.5922 52.2017 60.5757V35.1813C52.2017 34.3534 51.8728 33.5594 51.2874 32.974C50.702 32.3886 49.908 32.0597 49.0801 32.0597C48.2522 32.0597 47.4582 32.3886 46.8727 32.974C46.2873 33.5594 45.9584 34.3534 45.9584 35.1813V52.6155C45.9584 53.6301 45.3497 54.3012 44.9595 54.3012C44.5693 54.3012 43.9606 53.5988 43.9606 52.5531V35.1813C43.9606 33.4927 44.5083 31.8497 45.5214 30.4989C45.9383 29.9224 46.4811 29.4484 47.1085 29.1131C47.7359 28.7777 48.4315 28.5898 49.1425 28.5635H70.2915C73.1165 28.5635 75.4265 31.529 75.4265 35.1813V52.5531Z"/>
</svg>
