<svg width="94" height="100" viewBox="0 0 94 100" fill="none" xmlns="http://www.w3.org/2000/svg">
<path d="M93.2916 53.7241C93.2916 56.6323 93.2916 59.5302 93.2916 62.4384C93.3008 63.8013 92.9463 65.142 92.2647 66.3222C91.5831 67.5024 90.5991 68.4795 89.4141 69.1528C87.4706 70.3734 85.2468 71.076 82.9548 71.1936H82.3936C81.058 71.2176 79.7467 70.8353 78.6333 70.0972C77.5199 69.3592 76.657 68.3004 76.1588 67.0609C75.5776 65.74 75.2322 64.3275 75.1384 62.8874V62.816L75.3629 49.0914C75.5013 47.673 76.0526 46.3264 76.9486 45.2183C77.8446 44.1101 79.0459 43.289 80.4038 42.8566C80.3476 38.0187 79.1853 33.2577 77.0058 28.9381C71.5772 18.2544 62.975 11.9686 51.3423 10.2747C42.6582 8.98853 33.8161 11.1604 26.7161 16.3237C19.6162 21.4869 14.8252 29.2294 13.3726 37.8872C13.1518 39.3302 13.0189 40.7853 12.9746 42.2444C12.9746 42.4587 12.9746 42.6627 12.9746 42.8668C14.0981 43.2202 15.1148 43.8502 15.9314 44.6988C16.748 45.5475 17.3383 46.5878 17.6481 47.724C17.9987 48.8232 18.1844 49.9683 18.1991 51.122C18.1991 55.2037 18.1991 58.9282 18.1991 62.4895C18.1733 63.7037 17.967 64.9074 17.5869 66.0609C17.1317 67.5254 16.2332 68.8125 15.0154 69.7446C15.4167 74.5323 17.5998 78.9952 21.1331 82.2508C24.6664 85.5064 29.2927 87.3176 34.0972 87.3264H36.5973C37.0244 86.5553 37.6496 85.9123 38.4085 85.4638C39.1673 85.0153 40.0322 84.7777 40.9136 84.7754H50.4647C51.123 84.774 51.775 84.9031 52.383 85.1553C52.991 85.4075 53.543 85.7778 54.007 86.2446C54.471 86.7115 54.8379 87.2657 55.0863 87.8753C55.3348 88.4848 55.46 89.1376 55.4546 89.7958V95.0612C55.4438 96.3765 54.913 97.6342 53.9781 98.5595C53.0432 99.4849 51.7801 100.003 50.4647 100H40.9136C40.0324 99.9966 39.168 99.7585 38.4093 99.3101C37.6507 98.8618 37.0252 98.2193 36.5973 97.449H34.0972C26.622 97.4377 19.4336 94.5704 14.0029 89.4337C8.57212 84.2969 5.30955 77.2791 4.8827 69.816C4.35832 69.5516 3.85662 69.2445 3.38268 68.8977C2.38566 68.2341 1.56232 67.341 0.981727 66.2935C0.401136 65.2459 0.0802264 64.0744 0.0459188 62.8772C-0.0153063 59.0404 -0.0153063 54.9996 0.0459188 50.8567C0.0576586 49.7334 0.326841 48.6277 0.832771 47.6247C1.3387 46.6217 2.0679 45.748 2.96431 45.0709C2.56292 33.7124 6.65032 22.6526 14.342 14.2849C20.3451 7.38719 28.4857 2.69899 37.4646 0.9685C54.4137 -2.26622 68.6894 2.61137 79.9344 15.4584C87.1385 23.683 90.6385 33.6729 90.3324 45.122C91.2635 45.8454 92.0143 46.7746 92.5259 47.8369C93.0376 48.8992 93.2962 50.0655 93.2814 51.2445L93.2916 53.7241ZM34.0462 44.4077C35.3177 44.4077 36.5606 44.0306 37.6178 43.3242C38.675 42.6179 39.4989 41.6138 39.9855 40.4392C40.4721 39.2645 40.5994 37.9719 40.3513 36.7249C40.1033 35.4778 39.491 34.3324 38.5919 33.4333C37.6929 32.5342 36.5474 31.922 35.3004 31.6739C34.0534 31.4259 32.7608 31.5532 31.5861 32.0398C30.4114 32.5263 29.4074 33.3503 28.701 34.4075C27.9946 35.4647 27.6176 36.7076 27.6176 37.979C27.6176 39.684 28.2949 41.3192 29.5005 42.5248C30.7061 43.7304 32.3412 44.4077 34.0462 44.4077ZM58.8424 31.5504C57.5709 31.5504 56.328 31.9274 55.2708 32.6338C54.2136 33.3402 53.3896 34.3442 52.9031 35.5189C52.4165 36.6936 52.2892 37.9862 52.5373 39.2332C52.7853 40.4802 53.3976 41.6257 54.2966 42.5248C55.1957 43.4238 56.3412 44.0361 57.5882 44.2841C58.8352 44.5322 60.1278 44.4049 61.3025 43.9183C62.4772 43.4317 63.4812 42.6078 64.1876 41.5506C64.894 40.4934 65.271 39.2505 65.271 37.979C65.271 37.134 65.1044 36.2972 64.7807 35.5165C64.457 34.7359 63.9825 34.0268 63.3845 33.4297C62.7864 32.8326 62.0765 32.3593 61.2954 32.0368C60.5143 31.7144 59.6772 31.5491 58.8322 31.5504H58.8424ZM61.8322 52.8567H31.0462C30.5943 52.8496 30.1465 52.9426 29.7349 53.1291C29.3232 53.3155 28.958 53.5908 28.6653 53.9352C28.3727 54.2795 28.1599 54.6844 28.0423 55.1207C27.9246 55.557 27.905 56.014 27.9849 56.4588C28.8133 60.7401 31.106 64.5996 34.4697 67.3749C37.8333 70.1501 42.058 71.668 46.4188 71.668C50.7795 71.668 55.0043 70.1501 58.3679 67.3749C61.7315 64.5996 64.0243 60.7401 64.8526 56.4588C64.9318 56.0174 64.9131 55.564 64.7978 55.1307C64.6825 54.6973 64.4734 54.2946 64.1852 53.951C63.8971 53.6074 63.537 53.3313 63.1304 53.1422C62.7238 52.9531 62.2806 52.8556 61.8322 52.8567Z" fill="#0069D9"/>
</svg>
