<svg width="84" height="100" viewBox="0 0 84 100" fill="none" xmlns="http://www.w3.org/2000/svg">
<path d="M14.6764 40.4637L18.2591 38.6724C18.9967 38.3562 19.2075 37.5132 18.8914 36.7756C18.0484 34.6681 17.8376 32.4553 18.0484 30.2424C18.8914 23.077 25.0031 17.8083 32.1685 18.019L31.8524 20.9695C31.6416 22.3394 33.1169 23.3931 34.3814 22.7609L45.3403 17.7029C46.6047 17.1761 46.7101 15.4901 45.6564 14.6471L36.1727 7.27089C35.0136 6.42789 33.433 7.06014 33.3276 8.53538L33.0115 11.0644C22.158 10.5375 12.4635 18.4405 11.1991 29.3994C10.7776 32.8768 11.3044 36.3541 12.5689 39.6207C12.9904 40.4637 13.9388 40.7798 14.6764 40.4637Z" fill="#0069D9"/>
<path d="M74.5289 60.9062L70.9462 62.803C70.3139 63.1191 69.9978 63.9621 70.3139 64.5943C71.1569 66.7018 71.473 68.9147 71.1569 71.2329C70.3139 78.3983 64.0968 83.667 57.0368 83.4563L57.3529 80.5058C57.5637 79.136 56.0884 78.0822 54.8239 78.7145L43.865 83.7724C42.6005 84.2993 42.4952 85.9853 43.5489 86.8283L53.0326 94.2045C54.1917 95.0474 55.7723 94.4152 55.8777 92.94L56.1938 90.3056C67.0473 90.8325 76.7417 82.9294 78.0062 71.9705C78.4277 68.3878 77.9009 64.8051 76.531 61.5385C76.2149 60.9062 75.2665 60.5901 74.5289 60.9062Z" fill="#0069D9"/>
<path d="M82.432 38.0401C81.6944 31.7177 76.3203 26.9758 69.8925 26.9758H61.041C54.6132 26.9758 49.3445 31.7177 48.5015 38.0401L47.237 48.2614C47.0263 49.6313 47.9747 50.8957 49.2392 51.1065C54.2971 52.1602 59.7766 52.7925 65.3614 52.7925C70.9462 52.7925 76.4257 52.1602 81.4836 51.1065C82.7481 50.7904 83.6965 49.5259 83.4857 48.2614L82.432 38.0401Z" fill="#0069D9"/>
<path d="M65.4667 23.8145C72.0429 23.8145 77.374 18.4835 77.374 11.9073C77.374 5.33107 72.0429 0 65.4667 0C58.8905 0 53.5594 5.33107 53.5594 11.9073C53.5594 18.4835 58.8905 23.8145 65.4667 23.8145Z" fill="#0069D9"/>
<path d="M22.6848 74.1833H13.8334C7.51096 74.1833 2.13689 78.9252 1.29389 85.2476L0.0294054 95.4689C-0.181343 96.8388 0.767023 98.1033 2.03151 98.314C7.08947 99.3678 12.5689 100 18.1537 100C23.7386 100 29.218 99.3678 34.276 98.314C35.5405 97.9979 36.4888 96.7334 36.2781 95.4689L35.0136 85.2476C34.3814 78.9252 29.0073 74.1833 22.6848 74.1833Z" fill="#0069D9"/>
<path d="M18.2592 71.0221C24.8354 71.0221 30.1665 65.691 30.1665 59.1148C30.1665 52.5386 24.8354 47.2075 18.2592 47.2075C11.683 47.2075 6.35193 52.5386 6.35193 59.1148C6.35193 65.691 11.683 71.0221 18.2592 71.0221Z" fill="#0069D9"/>
</svg>
