<svg width="81" height="100" viewBox="0 0 81 100" fill="none" xmlns="http://www.w3.org/2000/svg">
<path d="M26.3865 72.1311H54.0837V73.5764H26.3865V72.1311Z" fill="#0069D9"/>
<path d="M14.8365 82.1529C15.6629 81.3161 17.0876 81.9056 17.0876 83.0847C17.0876 84.2542 15.6629 84.8437 14.8365 84.0165C14.3236 83.5031 14.3236 82.6663 14.8365 82.1529Z" fill="#0069D9"/>
<path d="M63.7625 82.1529C64.5983 81.3161 66.0231 81.9056 66.0231 83.0847C66.0231 84.2542 64.5983 84.8437 63.7625 84.0165C63.2495 83.5031 63.2495 82.6663 63.7625 82.1529Z" fill="#0069D9"/>
<path d="M13.1742 69.6588C14.789 68.0424 17.4105 68.0424 19.0252 69.6588C20.6399 71.2753 20.6399 73.8996 19.0252 75.516C17.4105 77.1324 14.789 77.1324 13.1742 75.516C11.5595 73.8996 11.5595 71.2753 13.1742 69.6588Z" fill="#0069D9"/>
<path d="M54.1977 38.747C54.0552 27.0707 78.8839 27.1563 78.8839 38.747C78.8839 39.7929 80.4702 39.7929 80.4702 38.747C80.4702 16.8207 61.9293 0.105079 40.4345 0.000487298C18.8258 -0.104104 1.52588e-05 16.6401 1.52588e-05 38.747C1.52588e-05 39.7929 1.57674 39.7929 1.57674 38.747C1.57674 27.1468 26.2725 27.0612 26.2725 38.747C26.2725 39.7644 27.8492 39.85 27.8777 38.728C28.4191 26.7094 52.45 27.5367 52.5925 38.6329C52.6115 39.9546 54.2072 39.7739 54.1977 38.747Z" fill="#0069D9"/>
<path d="M61.4449 69.6588C63.0596 68.0424 65.6812 68.0424 67.2959 69.6588C68.9106 71.2753 68.9106 73.8996 67.2959 75.516C65.6812 77.1324 63.0596 77.1324 61.4449 75.516C59.8302 73.8996 59.8302 71.2753 61.4449 69.6588Z" fill="#0069D9"/>
<path d="M26.3865 77.4082H54.0837V78.863H26.3865V77.4082Z" fill="#0069D9"/>
<path d="M62.0719 92.4313V97.3091C62.0719 98.7828 63.2782 99.9999 64.7599 99.9999H70.5159C71.9977 99.9999 73.2134 98.7828 73.2134 97.3091V90.9385C75.588 89.3316 77.1078 86.6312 77.1078 83.6361C77.1078 77.0943 77.6682 66.6542 72.4631 62.0997H74.7237C75.949 62.0997 76.9463 61.1013 76.9463 59.8652V58.5816C76.9463 57.355 75.949 56.3566 74.7237 56.3566C72.824 56.3566 71.3328 56.1569 69.7275 57.4596C68.5687 53.2474 67.1915 49.7103 65.3013 47.048C62.7652 43.4728 59.3458 41.4666 54.3782 41.4666C44.9463 41.4666 35.5144 41.4666 26.092 41.4666C21.1149 41.4666 17.705 43.4728 15.1689 47.048C13.2788 49.7103 11.9015 53.2474 10.7427 57.4596C9.13747 56.1569 7.63673 56.3566 5.74655 56.3566C4.52126 56.3566 3.52393 57.355 3.52393 58.5816V59.8652C3.52393 61.1013 4.52126 62.0997 5.74655 62.0997H8.00716C2.80206 66.6542 3.36246 77.0943 3.36246 83.6361C3.36246 86.6502 4.90119 89.3601 7.29478 90.9575V97.3091C7.29478 98.7828 8.50108 99.9999 9.98282 99.9999H15.7388C17.2206 99.9999 18.4364 98.7828 18.4364 97.3091V92.4313C32.9784 92.4313 47.5299 92.4313 62.0719 92.4313ZM24.8003 81.1068H55.67V85.7279H24.8003V81.1068ZM24.8003 75.8297H55.67V80.4508H24.8003V75.8297ZM24.8003 70.5431H55.67V75.1641H24.8003V70.5431ZM62.6418 81.0308C64.4654 79.2052 67.5999 80.4983 67.5999 83.0846C67.5999 85.6708 64.4654 86.964 62.6418 85.1384C61.5115 84.0069 61.5115 82.1623 62.6418 81.0308ZM13.7157 81.0308C15.5394 79.2052 18.6738 80.4983 18.6738 83.0846C18.6738 85.6708 15.5394 86.964 13.7157 85.1384C12.5759 84.0069 12.5759 82.1623 13.7157 81.0308ZM60.3242 68.5368C62.5563 66.3023 66.1752 66.3023 68.4073 68.5368C70.6394 70.7713 70.6394 74.3939 68.4073 76.6284C66.1752 78.8629 62.5563 78.8629 60.3242 76.6284C58.092 74.3939 58.092 70.7713 60.3242 68.5368ZM12.063 68.5368C14.2951 66.3023 17.914 66.3023 20.1366 68.5368C22.3687 70.7713 22.3687 74.3939 20.1366 76.6284C17.914 78.8629 14.2951 78.8629 12.063 76.6284C9.83085 74.3939 9.83085 70.7713 12.063 68.5368ZM12.1484 60.5213L11.5785 60.5498C12.8418 55.3012 14.3046 50.9939 16.4512 47.9608C18.6833 44.823 21.6943 43.0544 26.092 43.0544H54.3782C58.7664 43.0544 61.7869 44.823 64.0095 47.9608C66.1657 50.9939 67.6284 55.3012 68.8917 60.5498L68.3218 60.5213H12.1484Z" fill="#0069D9"/>
<path d="M26.3865 82.6948H54.0837V84.1496H26.3865V82.6948Z" fill="#0069D9"/>
</svg>
