<svg width="101" height="100" viewBox="0 0 101 100" fill="#0069d9" xmlns="http://www.w3.org/2000/svg">
<path d="M0.102233 71.6815C0.204466 72.7038 0.920096 73.6239 2.04466 73.8284L7.87194 74.8507C8.48533 77.0998 9.3032 79.2467 10.53 81.1891L7.05407 85.9941C6.44067 86.9142 6.54291 88.141 7.25854 88.8566L9.3032 90.9013L11.3479 92.9459C12.1657 93.6616 13.2903 93.866 14.2104 93.1504L19.0153 89.6745C20.9578 90.9013 23.2069 91.7191 25.456 92.3325L26.4783 98.1598C26.6828 99.2844 27.6029 100 28.7275 100H31.6922H34.657C35.7815 100 36.7016 99.1821 36.9061 98.1598L37.9284 92.2303C40.1775 91.6169 42.3244 90.6968 44.2669 89.5722L49.0718 93.0482C49.9919 93.6616 51.2187 93.5593 51.9343 92.8437L53.979 90.799L56.0236 88.7544C56.7393 87.9365 56.9437 86.812 56.2281 85.8919L52.7522 80.9847C53.8768 79.0423 54.7969 76.8954 55.308 74.6462L61.1353 73.6239C62.2599 73.4194 62.9755 72.4993 62.9755 71.3748V68.41V65.4453C62.9755 64.3207 62.1576 63.4006 61.1353 63.1961L55.2058 62.1738C54.5924 59.9247 53.6723 57.7778 52.5477 55.8354L55.9214 51.0304C56.5348 50.1103 56.4326 48.8835 55.7169 48.1679L53.6723 46.1232L51.6276 44.0786C50.8098 43.363 49.6852 43.1585 48.7651 43.8741L43.8579 47.35C41.9155 46.2255 39.8708 45.4076 37.724 44.7942L36.7016 38.9669C36.4972 37.8424 35.5771 37.1268 34.4525 37.1268H31.4877H28.523C27.3984 37.1268 26.4783 37.9446 26.2739 38.9669L25.2515 44.7942C23.0024 45.4076 20.8555 46.2255 18.9131 47.4523L14.1081 43.9764C13.188 43.363 11.9613 43.4652 11.2456 44.1808L9.20096 46.2255L7.15631 48.2701C6.44067 49.088 6.23621 50.2126 6.95184 51.1327L10.4278 55.9376C9.3032 57.88 8.3831 60.0269 7.7697 62.2761L1.94243 63.2984C0.817864 63.8095 0 64.7296 0 65.8542V68.819L0.102233 71.6815ZM20.4466 73.7261L28.8297 65.343L25.6605 62.1738C25.3538 61.8671 25.5582 61.2537 25.9672 61.2537L39.5641 59.9247C39.9731 59.9247 40.382 60.2314 40.382 60.7426L39.053 74.3395C39.053 74.8507 38.4396 75.0552 38.1329 74.6462L34.9637 71.477L26.5806 79.8601C26.1716 80.269 25.6605 80.269 25.2515 79.8601L20.4466 74.9529C20.1399 74.6462 20.1399 74.0328 20.4466 73.7261ZM99.2682 30.8905L94.9744 28.2325C95.2811 26.2901 95.1789 24.3476 94.9744 22.5074L99.1659 19.8494C99.9838 19.3382 100.291 18.3159 99.8816 17.498L98.8592 15.2489L97.9392 12.9998C97.6325 12.1819 96.7124 11.6707 95.7923 11.8752L90.8851 12.9998C89.7605 11.4663 88.3293 10.035 86.6935 8.91046L87.7159 4.10551C87.9203 3.18541 87.5114 2.26532 86.5913 1.95862L84.3422 1.03852L82.093 0.118425C81.2752 -0.188274 80.2529 0.118425 79.7417 0.834055L77.0836 5.12784C75.1412 4.92337 73.1988 4.92337 71.3586 5.23007L68.7005 1.03852C68.1894 0.220658 67.167 -0.086041 66.3492 0.322891L64.1 1.24299L61.8509 2.16308C61.0331 2.46978 60.5219 3.38988 60.7264 4.30998L61.8509 9.21716C60.3174 10.3417 58.9884 11.773 57.8638 13.3065L53.0589 12.2841C52.1388 12.0797 51.2187 12.5908 50.912 13.4087L49.9919 15.6578L49.0718 18.0092C48.7651 18.8271 49.0718 19.8494 49.7874 20.3605L54.0812 23.0186C53.8768 24.961 53.8768 26.9035 54.1835 28.7436L50.0941 31.4017C49.2763 31.9129 48.9696 32.9352 49.3785 33.7531L50.2986 36.0022L51.2187 38.2513C51.5254 39.0692 52.4455 39.5803 53.3656 39.3759L58.2728 38.2513C59.3973 39.6826 60.7264 41.0116 62.2599 42.1362L61.2375 46.9411C61.0331 47.8612 61.5442 48.7813 62.3621 49.088L64.6112 50.0081L66.8603 50.9282C67.6782 51.2349 68.7005 50.9282 69.2117 50.2126L71.8698 45.9188C73.8122 46.1232 75.7546 46.1232 77.5948 45.9188L80.2529 50.1103C80.764 50.9282 81.7863 51.2349 82.6042 50.826L84.8533 49.9059L87.1025 48.9858C87.9203 48.6791 88.4315 47.759 88.227 46.8389L87.1025 41.9317C88.6359 40.8071 89.965 39.3759 91.0895 37.8424L95.9967 38.9669C96.9168 39.1714 97.8369 38.6602 98.1436 37.8424L99.0637 35.5933L99.9838 33.3441C100.291 32.3218 99.9838 31.4017 99.2682 30.8905ZM83.831 21.3829L76.7769 28.4369L79.435 31.095C79.7417 31.4017 79.5372 31.9129 79.1283 31.9129L67.6782 33.0374C67.2693 33.0374 66.9626 32.7307 67.0648 32.424L68.1894 20.9739C68.1894 20.565 68.7005 20.3605 69.0072 20.6672L71.6653 23.3253L78.7194 16.2712C79.0261 15.9645 79.5372 15.9645 79.8439 16.2712L83.831 20.2583C84.1377 20.565 84.1377 21.0762 83.831 21.3829Z"/>
</svg>
