<svg width="80" height="100" viewBox="0 0 80 100" fill="#0069d9" xmlns="http://www.w3.org/2000/svg">
<path d="M103.176 41.4118C99.1765 41.4118 95.8824 44.1176 94.8235 47.7647H79.7647V37.2941H87.7647C89.0588 37.2941 90 36.3529 90 35.0588V24.9412C93.6471 24 96.3529 20.5882 96.3529 16.7059C96.3529 12 92.4706 8.11765 87.7647 8.11765C83.0588 8.11765 79.1765 12 79.1765 16.7059C79.1765 20.7059 81.8824 24 85.5294 24.9412V32.8235H79.2941C78.1177 29.0588 74.5882 26.2353 70.4706 26.2353H58.1177V16.9412C61.7647 16 64.4706 12.5882 64.4706 8.58824C64.4706 3.88235 60.5882 0 55.8824 0C51.1765 0 47.2941 3.88235 47.2941 8.58824C47.2941 12.5882 50 15.8824 53.6471 16.9412V26.2353H41.2941C37.0588 26.2353 33.6471 29.0588 32.4706 32.8235H26.2353V24.9412C29.8824 24 32.5882 20.5882 32.5882 16.7059C32.5882 12 28.7059 8.11765 24 8.11765C19.2941 8.11765 15.4118 12 15.4118 16.7059C15.4118 20.7059 18.1176 24 21.7647 24.9412V35.0588C21.7647 36.3529 22.7059 37.2941 24 37.2941H32V47.7647H16.9412C16 44.1176 12.5882 41.4118 8.58824 41.4118C3.88235 41.4118 0 45.2941 0 50C0 54.7059 3.88235 58.5882 8.58824 58.5882C12.5882 58.5882 15.8824 55.8824 16.9412 52.2353H32.1176V62.7059H24.1176C22.8235 62.7059 21.8824 63.6471 21.8824 64.9412V75.1765C18.2353 76.1177 15.5294 79.5294 15.5294 83.5294C15.5294 88.2353 19.4118 92.1177 24.1176 92.1177C28.8235 92.1177 32.7059 88.2353 32.7059 83.5294C32.7059 79.5294 30 76.2353 26.3529 75.1765V67.1765H32.5882C33.7647 70.9412 37.2941 73.7647 41.4118 73.7647H53.7647V83.0588C50.1177 84 47.4118 87.4118 47.4118 91.4118C47.4118 96.1176 51.2941 100 56 100C60.7059 100 64.5882 96.1176 64.5882 91.4118C64.5882 87.4118 61.8824 84.1176 58.2353 83.0588V73.7647H70.5882C74.8235 73.7647 78.2353 70.9412 79.4118 67.1765H85.6471V75.1765C82 76.1177 79.2941 79.5294 79.2941 83.5294C79.2941 88.2353 83.1765 92.1177 87.8824 92.1177C92.5882 92.1177 96.4706 88.2353 96.4706 83.5294C96.4706 79.5294 93.7647 76.2353 90.1176 75.1765V64.9412C90.1176 63.6471 89.1765 62.7059 87.8824 62.7059H79.8824V52.2353H95.0588C96 55.8824 99.4118 58.5882 103.412 58.5882C108.118 58.5882 112 54.7059 112 50C112 45.2941 107.882 41.4118 103.176 41.4118ZM83.6471 16.5882C83.6471 14.2353 85.5294 12.4706 87.7647 12.4706C90.1176 12.4706 91.8824 14.3529 91.8824 16.5882C91.8824 18.8235 90 20.7059 87.7647 20.7059C85.4118 20.8235 83.6471 18.9412 83.6471 16.5882ZM51.7647 8.58824C51.7647 6.35294 53.6471 4.47059 55.8824 4.47059C58.2353 4.47059 60 6.35294 60 8.58824C60 10.9412 58.1176 12.7059 55.8824 12.7059C53.5294 12.7059 51.7647 10.9412 51.7647 8.58824ZM19.8824 16.5882C19.8824 14.2353 21.7647 12.4706 24 12.4706C26.3529 12.4706 28.1176 14.3529 28.1176 16.5882C28.1176 18.8235 26.2353 20.7059 24 20.7059C21.6471 20.8235 19.8824 18.9412 19.8824 16.5882ZM8.58824 54.1176C6.35294 54.1176 4.47059 52.2353 4.47059 50C4.47059 47.6471 6.35294 45.8824 8.58824 45.8824C10.9412 45.8824 12.7059 47.7647 12.7059 50C12.8235 52.3529 10.9412 54.1176 8.58824 54.1176ZM28.1176 83.5294C28.1176 85.7647 26.2353 87.6471 24 87.6471C21.6471 87.6471 19.8824 85.7647 19.8824 83.5294C19.8824 81.1765 21.7647 79.4118 24 79.4118C26.3529 79.4118 28.1176 81.2941 28.1176 83.5294ZM60 91.4118C60 93.6471 58.1176 95.5294 55.8824 95.5294C53.5294 95.5294 51.7647 93.6471 51.7647 91.4118C51.7647 89.0588 53.6471 87.2941 55.8824 87.2941C58.2353 87.2941 60 89.0588 60 91.4118ZM91.8824 83.5294C91.8824 85.7647 90 87.6471 87.7647 87.6471C85.4118 87.6471 83.6471 85.7647 83.6471 83.5294C83.6471 81.1765 85.5294 79.4118 87.7647 79.4118C90.1176 79.4118 91.8824 81.2941 91.8824 83.5294ZM75.2941 64.5882C75.2941 67.1765 73.1765 69.4118 70.4706 69.4118H41.2941C38.7059 69.4118 36.4706 67.2941 36.4706 64.5882V35.4118C36.4706 32.8235 38.5882 30.5882 41.2941 30.5882H70.4706C73.0588 30.5882 75.2941 32.7059 75.2941 35.4118V64.5882ZM103.176 54.1176C100.824 54.1176 99.0588 52.2353 99.0588 50C99.0588 47.6471 100.941 45.8824 103.176 45.8824C105.529 45.8824 107.294 47.7647 107.294 50C107.294 52.3529 105.412 54.1176 103.176 54.1176Z"/>
<path d="M69.5294 47.2942L65.8823 46.9413C65.7647 46.9413 65.647 46.8236 65.647 46.706C65.5294 46.2354 65.2941 45.8825 65.1764 45.5295C65.0588 45.4119 65.1764 45.2942 65.1764 45.1766L67.5294 42.353C67.8823 41.8825 67.8823 41.1766 67.4117 40.8236L65.1764 38.5883C64.7058 38.1177 64.1176 38.1178 63.647 38.4707L60.8235 40.8236C60.7058 40.9413 60.5882 40.9413 60.4705 40.8236C60.1176 40.5883 59.647 40.4707 59.2941 40.353C59.1764 40.353 59.0588 40.2354 59.0588 40.1177L58.7058 36.4707C58.5882 35.8825 58.1176 35.4119 57.5294 35.4119H54.3529C53.7647 35.4119 53.2941 35.8825 53.1764 36.4707L52.8235 40.1177C52.8235 40.2354 52.7058 40.353 52.5882 40.353C52.1176 40.4707 51.7647 40.706 51.4117 40.8236C51.2941 40.9413 51.1764 40.8236 51.0588 40.8236L48.2352 38.4707C47.7647 38.1178 47.0588 38.1177 46.7058 38.5883L44.4705 40.8236C44 41.2942 44 41.8825 44.3529 42.353L46.7058 45.1766C46.8235 45.2942 46.8235 45.4119 46.7058 45.5295C46.4705 45.8825 46.3529 46.353 46.2352 46.706C46.2352 46.8236 46.1176 46.9413 45.9999 46.9413L42.3529 47.2942C41.7647 47.4119 41.2941 47.8825 41.2941 48.4707V51.6472C41.2941 52.2354 41.7647 52.706 42.3529 52.8236L45.9999 53.1766C46.1176 53.1766 46.2352 53.2942 46.2352 53.4119C46.3529 53.8825 46.5882 54.2354 46.7058 54.5883C46.8235 54.706 46.7058 54.8236 46.7058 54.9413L44.3529 57.7648C44 58.2354 44 58.9413 44.4705 59.2942L46.7058 61.5295C47.1764 62.0001 47.7647 62.0001 48.2352 61.6472L51.0588 59.2942C51.1764 59.1766 51.2941 59.1766 51.4117 59.2942C51.7647 59.5295 52.2352 59.6472 52.5882 59.7648C52.7058 59.7648 52.8235 59.8825 52.8235 60.0001L53.1764 63.6472C53.2941 64.2354 53.7647 64.706 54.3529 64.706H57.5294C58.1176 64.706 58.5882 64.2354 58.7058 63.6472L59.0588 60.0001C59.0588 59.8825 59.1764 59.7648 59.2941 59.7648C59.7647 59.6472 60.1176 59.4119 60.4705 59.2942C60.5882 59.1766 60.7058 59.2942 60.8235 59.2942L63.647 61.6472C64.1176 62.0001 64.8235 62.0001 65.1764 61.5295L67.4117 59.2942C67.8823 58.8236 67.8823 58.2354 67.5294 57.7648L65.1764 54.9413C65.0588 54.8236 65.0588 54.706 65.1764 54.5883C65.4117 54.2354 65.5294 53.7648 65.647 53.4119C65.647 53.2942 65.7647 53.1766 65.8823 53.1766L69.5294 52.8236C70.1176 52.706 70.5882 52.2354 70.5882 51.6472V48.4707C70.5882 47.8825 70.1176 47.2942 69.5294 47.2942ZM55.8823 55.1766C53.0588 55.1766 50.7058 52.8236 50.7058 50.0001C50.7058 47.1766 53.0588 44.8236 55.8823 44.8236C58.7058 44.8236 61.0588 47.1766 61.0588 50.0001C61.0588 52.8236 58.7058 55.1766 55.8823 55.1766Z"/>
</svg>
