<svg width="81" height="100" viewBox="0 0 81 100" fill="none" xmlns="http://www.w3.org/2000/svg">
<path d="M26.0416 71.6646H53.7388V73.1098H26.0416V71.6646Z" fill="#0069D9"/>
<path d="M14.4917 81.6863C15.318 80.8496 16.7428 81.4391 16.7428 82.6181C16.7428 83.7877 15.318 84.3772 14.4917 83.55C13.9787 83.0365 13.9787 82.1998 14.4917 81.6863Z" fill="#0069D9"/>
<path d="M63.4176 81.6863C64.2535 80.8496 65.6782 81.4391 65.6782 82.6181C65.6782 83.7877 64.2535 84.3772 63.4176 83.55C62.9047 83.0365 62.9047 82.1998 63.4176 81.6863Z" fill="#0069D9"/>
<path d="M12.8294 69.1923C14.4441 67.5759 17.0657 67.5759 18.6804 69.1923C20.2951 70.8087 20.2951 73.433 18.6804 75.0494C17.0657 76.6658 14.4441 76.6658 12.8294 75.0494C11.2147 73.433 11.2147 70.8087 12.8294 69.1923Z" fill="#0069D9"/>
<path d="M61.1001 69.1923C62.7148 67.5759 65.3363 67.5759 66.9511 69.1923C68.5658 70.8087 68.5658 73.433 66.9511 75.0494C65.3363 76.6658 62.7148 76.6658 61.1001 75.0494C59.4853 73.433 59.4853 70.8087 61.1001 69.1923Z" fill="#0069D9"/>
<path d="M26.0416 76.9417H53.7388V78.3964H26.0416V76.9417Z" fill="#0069D9"/>
<path d="M61.727 91.9647V96.8425C61.727 98.3163 62.9333 99.5334 64.415 99.5334H70.1711C71.6528 99.5334 72.8686 98.3163 72.8686 96.8425V90.4719C75.2432 88.865 76.7629 86.1646 76.7629 83.1695C76.7629 76.6278 77.3233 66.1876 72.1182 61.6331H74.3788C75.6041 61.6331 76.6015 60.6347 76.6015 59.3986V58.115C76.6015 56.8884 75.6041 55.8901 74.3788 55.8901C72.4792 55.8901 70.9879 55.6904 69.3827 56.993C68.2239 52.7808 66.8466 49.2437 64.9565 46.5814C62.4204 43.0063 59.001 41 54.0333 41C44.6015 41 35.1696 41 25.7472 41C20.7701 41 17.3601 43.0063 14.8241 46.5814C12.9339 49.2437 11.5566 52.7808 10.3978 56.993C8.79262 55.6904 7.29188 55.8901 5.4017 55.8901C4.17641 55.8901 3.17908 56.8884 3.17908 58.115V59.3986C3.17908 60.6347 4.17641 61.6331 5.4017 61.6331H7.66232C2.45721 66.1876 3.01761 76.6278 3.01761 83.1695C3.01761 86.1836 4.55634 88.8935 6.94994 90.4909V96.8425C6.94994 98.3163 8.15623 99.5334 9.63797 99.5334H15.394C16.8757 99.5334 18.0915 98.3163 18.0915 96.8425V91.9647C32.6335 91.9647 47.185 91.9647 61.727 91.9647ZM24.4554 80.6403H55.3251V85.2613H24.4554V80.6403ZM24.4554 75.3632H55.3251V79.9842H24.4554V75.3632ZM24.4554 70.0765H55.3251V74.6976H24.4554V70.0765ZM62.2969 80.5642C64.1206 78.7386 67.2551 80.0317 67.2551 82.618C67.2551 85.2043 64.1206 86.4974 62.2969 84.6718C61.1666 83.5403 61.1666 81.6957 62.2969 80.5642ZM13.3708 80.5642C15.1945 78.7386 18.329 80.0317 18.329 82.618C18.329 85.2043 15.1945 86.4974 13.3708 84.6718C12.231 83.5403 12.231 81.6957 13.3708 80.5642ZM59.9793 68.0703C62.2114 65.8358 65.8303 65.8358 68.0624 68.0703C70.2945 70.3047 70.2945 73.9274 68.0624 76.1619C65.8303 78.3963 62.2114 78.3963 59.9793 76.1619C57.7472 73.9274 57.7472 70.3047 59.9793 68.0703ZM11.7181 68.0703C13.9502 65.8358 17.5691 65.8358 19.7917 68.0703C22.0238 70.3047 22.0238 73.9274 19.7917 76.1619C17.5691 78.3963 13.9502 78.3963 11.7181 76.1619C9.486 73.9274 9.486 70.3047 11.7181 68.0703ZM11.8036 60.0547L11.2337 60.0832C12.497 54.8346 13.9597 50.5274 16.1064 47.4942C18.3385 44.3564 21.3495 42.5879 25.7472 42.5879H54.0333C58.4216 42.5879 61.4421 44.3564 63.6647 47.4942C65.8208 50.5274 67.2836 54.8346 68.5468 60.0832L67.9769 60.0547H11.8036Z" fill="#0069D9"/>
<path d="M26.0416 82.2283H53.7388V83.683H26.0416V82.2283Z" fill="#0069D9"/>
<path d="M0 18.1822C1.87333 23.4756 6.90667 27.2733 12.8422 27.2733C18.7789 27.2733 23.8144 23.4767 25.6889 18.1822H54.5467C56.42 23.4756 61.4533 27.2733 67.3889 27.2733C73.3256 27.2733 78.3611 23.4767 80.2356 18.1822H67.3867V9.09111H80.2333C78.36 3.8 73.3244 0 67.3867 0C61.4522 0 56.4178 3.8 54.5444 9.09111H25.6878C23.8144 3.8 18.7789 0 12.8422 0C6.90778 0 1.87333 3.8 0 9.09111H12.8422V18.1822H0Z" fill="#0069D9"/>
</svg>
