<svg width="110" height="100" viewBox="0 0 110 100" fill="none" xmlns="http://www.w3.org/2000/svg">
<path d="M96.2465 47.3136C94.6699 47.5772 93.0476 47.7272 91.3979 47.7272C90.2737 47.7272 89.1723 47.6545 88.0801 47.5317C87.8516 47.5045 87.6277 47.459 87.3992 47.4317C86.5172 47.3136 85.6307 47.159 84.767 46.9636C84.6024 46.9226 84.4379 46.8817 84.2734 46.8363C83.332 46.5999 82.4043 46.3363 81.504 46.009C81.4218 45.9817 81.3532 45.9545 81.2801 45.9272C80.2793 45.5636 79.3059 45.1545 78.36 44.6954L78.3508 44.6908L95.9678 72.7272V86.3636H13.7097V72.7272L28.7583 57.759C30.536 55.9908 33.4425 55.9908 35.2202 57.759L47.0379 69.5136C48.8156 71.2817 51.3565 70.9908 52.6863 68.8726L70.6963 40.2136C70.8288 40.0045 70.9887 39.9136 71.1395 39.7454C71.135 39.7408 71.135 39.7408 71.1258 39.7317C69.6909 38.3954 68.3793 36.909 67.2231 35.309C67.2186 35.309 67.2186 35.3045 67.2186 35.3045C66.6565 34.5272 66.1401 33.7136 65.6557 32.8863C65.6328 32.8499 65.61 32.8135 65.5871 32.7772C65.1347 31.9908 64.728 31.1817 64.3532 30.3545C64.3075 30.2635 64.2618 30.1772 64.2207 30.0863C63.8825 29.3135 63.5764 28.5181 63.3022 27.709C63.2473 27.559 63.1879 27.409 63.1331 27.2499C62.8909 26.4999 62.6944 25.7272 62.507 24.9499C62.4613 24.7317 62.3928 24.5272 62.3471 24.3045C62.1825 23.5499 62.0774 22.7772 61.9723 22.0045C61.9403 21.7545 61.8946 21.5226 61.8626 21.2772C61.753 20.2635 61.6936 19.2317 61.6936 18.1817C61.6936 15.009 62.21 11.959 63.1376 9.09082H9.13979C4.1129 9.09082 0 13.1817 0 18.1817V90.909C0 95.909 4.1129 99.9999 9.13979 99.9999H100.538C105.565 99.9999 109.677 95.909 109.677 90.909V41.4363C106.314 44.0545 102.338 45.8908 98.0379 46.8817C97.4393 47.0272 96.8589 47.2136 96.2465 47.3136ZM22.8495 40.909C17.7997 40.909 13.7097 36.8363 13.7097 31.8181C13.7097 26.7999 17.7997 22.7272 22.8495 22.7272C27.8992 22.7272 31.9893 26.7999 31.9893 31.8181C31.9893 36.8363 27.8992 40.909 22.8495 40.909Z" fill="#0069D9"/>
<path d="M73.1183 22.7273H86.828V36.3636H95.9678V22.7273H109.677L91.3979 0L73.1183 22.7273Z" fill="#0069D9"/>
</svg>
