<svg width="80" height="100" viewBox="0 0 80 100" fill="#0069d9" xmlns="http://www.w3.org/2000/svg">
<path d="M85.0901 18.3829C85.0901 15.5107 82.7527 13.1733 79.8805 13.1733C77.0083 13.1733 74.6709 15.5107 74.6709 18.3829V23.5925H85.0901V18.3829Z" />
<path d="M79.9169 0.036467L79.8805 0L79.844 0.036467C73.7991 6.08134 65.8215 9.49189 57.3055 9.69159V24.9227C57.3055 33.3154 61.3829 41.2392 68.2127 46.1188L79.8805 54.4542L91.5482 46.1188C98.378 41.2392 102.455 33.3171 102.455 24.9227V9.69159C93.9394 9.49189 85.9618 6.08134 79.9169 0.036467ZM92.0362 39.2213C92.0362 40.1799 91.2582 40.9579 90.2997 40.9579H69.4613C68.5027 40.9579 67.7247 40.1799 67.7247 39.2213V25.3291C67.7247 24.3705 68.5027 23.5925 69.4613 23.5925H71.1978V18.3829C71.1978 13.5953 75.0929 9.70027 79.8805 9.70027C84.6681 9.70027 88.5631 13.5953 88.5631 18.3829V23.5925H90.2997C91.2582 23.5925 92.0362 24.3705 92.0362 25.3291V39.2213Z" />
<path d="M79.8805 96.5269H0V99.9999H79.8805V96.5269Z" />
<path d="M8.68262 40.9578V68.7423H71.1978V52.5179L66.1949 48.9458C63.142 46.7647 60.5945 44.0349 58.6079 40.9578H8.68262Z" />
<path d="M78.8716 57.9984L74.6709 54.9994V72.2154H5.2096V37.4847H56.6718C55.8851 35.8125 55.2409 34.0725 54.7772 32.2751H0V77.425H79.8805V58.3231C79.5263 58.3231 79.1738 58.2155 78.8716 57.9984Z" />
<path d="M36.4672 82.6346H43.4134C44.0038 82.6346 44.5803 82.692 45.1499 82.7736V77.425H34.7307V82.7736C35.3003 82.692 35.8768 82.6346 36.4672 82.6346Z" />
<path d="M85.0901 34.0116V30.5385H88.5632V27.0654H71.1979V30.5385H74.6709V34.0116H71.1979V37.4846H88.5632V34.0116H85.0901ZM81.6171 34.0116H78.144V30.5385H81.6171V34.0116Z" />
<path d="M51.9205 93.0538C51.1148 89.0962 47.6052 86.1077 43.4132 86.1077H36.4671C32.2734 86.1077 28.7656 89.0962 27.9598 93.0538H51.9205Z" />
</svg>
