<svg width="144" height="100" viewBox="0 0 144 100" fill="#0069d9" xmlns="http://www.w3.org/2000/svg">
<path d="M3.84246 26.833H0V0.320068H26.513V4.14652H3.84246V26.833Z" />
<path d="M143.932 26.513H140.09V3.84246H117.403V0H143.932V26.513Z" />
<path d="M26.513 99.6797H0V73.1667H3.84246V95.8373H26.513V99.6797Z" />
<path d="M143.932 99.9998H117.403V96.1573H140.09V73.4868H143.932V99.9998Z" />
<path d="M20.2849 11.8154H11.3352V88.6486H20.2849V11.8154Z" />
<path d="M46.4939 11.8154H31.3162V88.6486H46.4939V11.8154Z" />
<path d="M26.7852 11.8794H23.8553V88.7126H26.7852V11.8794Z" />
<path d="M55.9558 11.7676H53.0259V88.6008H55.9558V11.7676Z" />
<path d="M62.1998 11.8154H59.27V88.6486H62.1998V11.8154Z" />
<path d="M77.4256 11.8794H65.8662V88.7126H77.4256V11.8794Z" />
<path d="M96.3338 11.8794H87.5441V88.7126H96.3338V11.8794Z" />
<path d="M83.6536 11.8154H80.7238V88.6486H83.6536V11.8154Z" />
<path d="M105.956 11.8794H103.026V88.7126H105.956V11.8794Z" />
<path d="M122.895 11.8154H119.965V88.6486H122.895V11.8154Z" />
<path d="M115.066 11.8794H109.158V88.7126H115.066V11.8794Z" />
<path d="M132.213 11.8794H126.305V88.7126H132.213V11.8794Z" />
</svg>
