<?xml version="1.0" encoding="utf-8"?><svg xmlns="http://www.w3.org/2000/svg" xmlns:xlink="http://www.w3.org/1999/xlink"><symbol viewBox="0 0 15 25" id="arrow" xmlns="http://www.w3.org/2000/svg"><path d="M14.052 11.524L3.111.4C2.858.142 2.52 0 2.16 0s-.698.142-.951.4l-.806.818a1.386 1.386 0 0 0 0 1.935l9.188 9.342-9.198 9.352a1.37 1.37 0 0 0-.393.967c0 .367.14.71.393.968l.806.819c.253.257.59.399.95.399s.699-.142.952-.4l10.951-11.135c.254-.258.393-.603.392-.97a1.37 1.37 0 0 0-.392-.97z"/></symbol></svg>