<svg width="80" height="100" viewBox="0 0 80 100" fill="#0069d9" xmlns="http://www.w3.org/2000/svg">
<path d="M47.8405 34.7274C47.8405 35.5091 47.2151 36.1345 46.4334 36.1345C45.6517 36.1345 45.0264 35.5091 45.0264 34.7274C45.0264 33.9457 45.6517 33.3203 46.4334 33.3203C47.2151 33.3985 47.8405 34.0238 47.8405 34.7274Z" />
<path d="M59.6443 34.7274C59.6443 35.5091 59.0189 36.1345 58.2372 36.1345C57.4555 36.1345 56.8301 35.5091 56.8301 34.7274C56.8301 33.9457 57.4555 33.3203 58.2372 33.3203C59.0189 33.3985 59.6443 34.0238 59.6443 34.7274Z" />
<path d="M32.5972 41.3719H32.6754L34.317 41.2156H34.3952C36.1149 47.0784 39.4763 52.0031 43.6193 54.9736C42.4468 60.6801 37.4438 60.9928 36.7403 62.2435L33.1444 66.7774L43.8538 78.3467L50.1857 69.7479L39.7889 62.947C40.0235 62.7907 44.0883 61.3055 45.5736 56.3025C47.5279 57.3969 50.0293 58.0223 52.3744 58.0223C54.7977 58.0223 56.9865 57.3187 59.1753 56.3025C60.5824 61.1491 64.8036 62.7907 64.9599 62.947C49.7166 72.3275 54.9541 69.1225 53.7815 69.7479L59.8007 78.3467L71.9171 66.3084L70.5101 65.5267C68.2431 62.6344 67.8523 62.0872 67.5396 61.9308C67.5396 61.4618 62.224 60.6019 60.9732 55.0518C63.3965 53.332 65.5853 50.9087 67.3051 48.0164H69.4939C72.4643 48.0164 74.8876 45.5931 74.8876 42.6226V40.8247C78.0926 39.6521 80.4378 36.6035 80.4378 32.9294C80.4378 29.4899 78.3271 26.5194 75.2785 25.1905V24.956C74.6531 17.0608 70.1192 10.2599 63.7874 6.58589C64.2564 4.63162 63.162 2.59918 61.2859 1.81747C55.2668 -0.605824 48.3877 -0.605824 42.3686 1.81747C41.3524 2.20832 40.4925 3.0682 40.1016 4.08442C39.7889 4.86613 39.7108 5.72601 39.8671 6.58589C28.2978 13.3086 28.4542 25.2687 28.2978 25.5032L28.7669 25.5814C26.0309 26.9885 24.1548 29.8026 24.1548 33.0858C24.233 37.6197 27.9852 41.3719 32.5972 41.3719ZM66.1325 45.8276H58.0027C57.5337 44.1079 55.9703 42.9353 54.1724 42.9353H51.8272C49.6385 42.9353 47.8405 44.7332 47.8405 46.922C47.8405 49.1108 49.6385 50.9087 51.8272 50.9087H54.1724C56.0485 50.9087 57.5337 49.658 58.0027 47.9382H64.8818C53.6252 64.6668 35.3332 52.1595 35.3332 32.6949C35.3332 31.4442 35.4896 30.1935 35.6459 29.0209H35.8022C40.6488 29.0209 45.4954 27.5357 49.9512 24.6433C51.5927 23.549 53.078 22.3764 54.4069 21.0475C57.5337 25.1124 62.6148 27.4575 68.634 27.4575C68.7121 27.4575 68.7121 27.4575 68.7903 27.4575C69.1812 29.1773 69.3375 30.897 69.3375 32.6949C69.3375 37.4634 68.1649 41.9973 66.1325 45.8276ZM72.8552 42.5445C72.8552 44.3424 71.37 45.8276 69.572 45.8276H68.4776C69.1812 44.4206 69.7284 42.9353 70.1974 41.3719C70.2756 41.3719 70.3537 41.4501 70.4319 41.4501H70.5101L72.0735 41.2937C72.308 41.2937 72.5425 41.2937 72.777 41.2937V42.5445H72.8552ZM40.8833 8.46199C44.6355 12.6832 48.3096 5.56967 58.1591 9.55638C59.8007 10.2599 61.6768 9.79089 62.8493 8.46199C68.3213 11.667 72.3862 17.5298 73.1679 24.5652C72.8552 24.487 72.4643 24.487 72.0735 24.487L70.4319 24.6433C70.3537 24.6433 70.3537 24.6433 70.2756 24.6433C68.3995 18.7024 64.3346 14.2466 59.019 12.2142C56.9865 11.3543 54.7977 10.9635 52.3744 10.9635C44.2447 10.9635 37.2093 16.1227 34.4733 24.5652C34.3952 24.5652 34.317 24.487 34.1606 24.487C31.6592 24.6433 31.4247 24.6433 30.5648 24.8779C31.2683 17.8425 35.1769 11.8233 40.8833 8.46199Z" />
<path d="M81.7667 72.015L73.7933 67.3247L60.4261 80.6919C60.1916 80.9264 59.957 81.0046 59.6444 81.0046H59.5662C59.2535 81.0046 58.9408 80.8483 58.7845 80.5356L51.9836 70.7642L44.7919 80.5356C44.6356 80.7701 44.3229 80.9264 44.0102 81.0046C43.6975 81.0046 43.3848 80.9264 43.1503 80.6919L31.112 67.6374C21.497 72.2495 29.5486 68.3409 22.9041 72.015C17.5885 75.1418 14.3053 80.8483 14.3053 87.0238V98.9057C14.3053 99.4529 14.7743 100 15.3997 100H89.2711C89.8183 100 90.3655 99.5311 90.3655 98.9057V86.9456C90.3655 80.8483 87.0823 75.1418 81.7667 72.015Z" />
<path d="M96.2283 55.9116C95.9156 57.7877 95.1339 59.4293 93.805 60.7582C91.2254 63.3378 87.395 64.0413 84.1118 62.5561L78.4054 68.2626C78.3272 68.1844 72.6207 64.823 72.9334 65.0576L79.7343 58.2567C78.249 54.9735 78.9526 51.1432 81.5322 48.5635C83.721 46.3747 87.0042 45.5149 90.0528 46.3747C90.2873 46.4529 90.5218 46.6874 90.6 46.9219C90.6782 47.1564 90.6 47.4691 90.3655 47.6255L87.0823 50.9086L88.1767 54.1136L91.3817 55.208L94.6649 52.003C94.8212 51.7685 95.1339 51.6904 95.3684 51.7685C95.603 51.8467 95.8375 52.0812 95.9156 52.3157C96.3065 53.4101 96.3847 54.739 96.2283 55.9116Z" />
<path d="M28.5323 60.9147L25.64 58.0224C25.4055 57.7879 24.9365 57.7097 24.6238 57.9442L21.7315 59.8985C20.9498 59.5076 20.1681 59.1168 19.3082 58.8823L18.6047 55.4428C18.5265 55.0519 18.2138 54.8174 17.8229 54.8174H13.7581C13.3672 54.8174 13.0545 55.0519 12.9764 55.4428L12.2728 58.8823C11.4129 59.1168 10.6312 59.5076 9.84952 59.8985L6.9572 57.9442C6.64452 57.7097 6.25366 57.7879 5.94098 58.0224L3.205 60.9147C2.97049 61.1492 2.89232 61.6182 3.12683 61.9309L5.00293 64.8232C4.61208 65.605 4.22122 66.3867 3.98671 67.2465L0.625366 67.9501C0.234512 68.0283 0 68.3409 0 68.7318V72.7967C0 73.1875 0.234512 73.5002 0.625366 73.5784L3.98671 74.2819C4.22122 75.1418 4.61208 75.9235 5.00293 76.7052L3.12683 79.5975C2.89232 79.9102 2.97049 80.3011 3.205 80.6137L6.09732 83.5061C6.33183 83.7406 6.80086 83.8188 7.11354 83.5842L10.0059 81.63C10.7876 82.0208 11.5693 82.4117 12.4292 82.6462L12.8982 85.1477C13.2109 82.568 13.9926 80.0666 15.2433 77.7996C11.6474 77.4869 8.8333 74.4383 8.8333 70.7642C8.8333 66.8557 11.9601 63.7289 15.8687 63.7289C19.6209 63.7289 22.6695 66.6993 22.904 70.3734C24.5456 69.4353 25.9527 68.4973 28.1415 67.4811L28.2197 67.4029L27.6725 67.1684C27.4379 66.3085 27.0471 65.5268 26.6562 64.7451L28.6105 61.8528C28.7669 61.5401 28.7669 61.1492 28.5323 60.9147Z" />
</svg>
