<svg width="101" height="100" viewBox="0 0 101 100" fill="#0069d9" xmlns="http://www.w3.org/2000/svg">
<path fill-rule="evenodd" clip-rule="evenodd" d="M74.2561 60.4063C76.6523 60.4063 78.6024 58.4563 78.6024 56.06C78.6024 53.6649 76.6523 51.7148 74.2561 51.7148C71.8598 51.7148 69.9098 53.6649 69.9098 56.06C69.9098 58.4563 71.8598 60.4063 74.2561 60.4063ZM94.7481 65.5359H70.1037L61.6546 56.06L70.1037 46.5852H94.7481V65.5359ZM95.6295 41.298V19.7032C95.6295 18.2456 94.4429 17.0591 92.9853 17.0591H87.9174V7.58425C87.9174 6.12668 86.7309 4.94012 85.2733 4.94012H72.9527C71.8863 4.94012 70.9311 5.57582 70.5168 6.55745C70.172 7.37713 70.259 8.30588 70.7493 9.04624C71.2407 9.7866 72.0647 10.2284 72.9527 10.2284H82.6292V17.0591H67.8462C66.7809 17.0591 65.8246 17.6948 65.4103 18.6764C65.0655 19.495 34.517 93.1396 35.0083 93.8799C35.5008 94.6203 36.3238 95.061 37.2118 95.061H92.9853C94.4429 95.061 95.6295 93.8755 95.6295 92.4168V70.8231H97.3922C98.8498 70.8231 100.036 69.6376 100.036 68.179V43.9411C100.036 42.4835 98.8498 41.298 97.3922 41.298H95.6295ZM66.5892 0.210429C66.262 0.071612 65.9171 0 65.5635 0C64.497 0 63.5396 0.635694 63.1254 1.61953L23.2232 96.3291C22.9489 96.9802 22.9445 97.6985 23.2111 98.3529C23.4777 99.0073 23.9823 99.5185 24.6334 99.7929C24.9595 99.9306 25.3055 100 25.6591 100C26.7256 100 27.683 99.3654 28.0972 98.3827L67.9983 3.67204C68.5657 2.32794 67.9333 0.775612 66.5892 0.210429ZM51.3413 20.73C51.3413 20.73 51.5991 18.9816 51.1078 18.2412C50.6164 17.5009 49.7934 17.0591 48.9043 17.0591H8.64411C6.79322 17.0591 5.28827 15.553 5.28827 13.7043C5.28827 11.7377 6.79762 10.2284 8.65182 10.2284H54.0108C55.0773 10.2284 56.0336 9.59269 56.4478 8.61106C56.7927 7.79248 56.7056 6.86263 56.2143 6.12227C55.7229 5.38191 54.8999 4.94012 54.0108 4.94012H8.65182C3.87476 4.94012 0 8.81488 0 13.5765V81.3996C0 88.9332 6.12888 95.061 13.6614 95.061H18.2699C19.3363 95.061 20.2926 94.4264 20.7058 93.4437C21.0506 92.6251 51.3413 20.73 51.3413 20.73Z" />
</svg>
