<svg  width="80" height="100" viewBox="0 0 80 100" fill="#0069d9" xmlns="http://www.w3.org/2000/svg">
<path d="M39.119 35.1661L49.9369 27.807H61.9954C63.0633 27.807 64.0874 27.3828 64.8425 26.6276C65.5976 25.8725 66.0219 24.8484 66.0219 23.7805V4.02649C66.0219 2.9586 65.5976 1.93445 64.8425 1.17933C64.0874 0.424218 63.0633 0 61.9954 0H34.0517C32.9838 0 31.9597 0.424218 31.2046 1.17933C30.4495 1.93445 30.0252 2.9586 30.0252 4.02649V23.812C30.0252 24.8799 30.4495 25.9041 31.2046 26.6592C31.9597 27.4143 32.9838 27.8385 34.0517 27.8385H37.8574V34.5038C37.8591 34.6498 37.9002 34.7927 37.9765 34.9173C38.0527 35.0418 38.1613 35.1435 38.2906 35.2114C38.4199 35.2792 38.5652 35.3109 38.711 35.3029C38.8569 35.295 38.9979 35.2477 39.119 35.1661ZM52.5442 8.11606C53.0328 8.11606 53.5104 8.26096 53.9167 8.53243C54.323 8.8039 54.6397 9.18975 54.8267 9.64118C55.0136 10.0926 55.0626 10.5894 54.9672 11.0686C54.8719 11.5479 54.6366 11.9881 54.2911 12.3336C53.9456 12.6791 53.5054 12.9144 53.0261 13.0097C52.5469 13.105 52.0501 13.0561 51.5987 12.8691C51.1473 12.6821 50.7614 12.3655 50.49 11.9592C50.2185 11.5529 50.0736 11.0753 50.0736 10.5866C50.0736 9.93139 50.3339 9.303 50.7972 8.83968C51.2605 8.37636 51.8889 8.11606 52.5442 8.11606V8.11606ZM44.4912 8.11606C44.9798 8.11606 45.4575 8.26096 45.8637 8.53243C46.27 8.8039 46.5867 9.18975 46.7737 9.64118C46.9607 10.0926 47.0096 10.5894 46.9143 11.0686C46.8189 11.5479 46.5836 11.9881 46.2381 12.3336C45.8926 12.6791 45.4524 12.9144 44.9732 13.0097C44.4939 13.105 43.9972 13.0561 43.5457 12.8691C43.0943 12.6821 42.7084 12.3655 42.437 11.9592C42.1655 11.5529 42.0206 11.0753 42.0206 10.5866C42.0206 9.93139 42.2809 9.303 42.7442 8.83968C43.2075 8.37636 43.8359 8.11606 44.4912 8.11606V8.11606ZM41.3373 15.6749C42.1993 15.4542 43.7132 16.8629 48.4756 16.8629C53.238 16.8629 54.7834 15.4542 55.614 15.6749C56.4445 15.8957 53.6691 20.8684 48.4756 20.8684C43.2822 20.8684 40.5172 15.8957 41.4108 15.6749H41.3373ZM95.4373 90.9798V100H0V91.4214C0.118745 90.2526 0.537276 89.1342 1.21507 88.1746C1.89285 87.215 2.80694 86.4467 3.8688 85.9441C5.68597 85.0634 7.58353 84.3593 9.53532 83.8415C12.6089 83.0253 15.6143 81.9708 18.524 80.6876L18.7342 80.5614C19.0333 80.3695 19.2789 80.1049 19.4481 79.7924C19.6172 79.4799 19.7044 79.1295 19.7014 78.7742V75.1262C10.1346 75.2103 7.31707 71.1102 7.31707 71.1102C7.31707 71.1102 12.7839 71.0261 12.4474 56.6022C12.111 42.1783 18.7553 39.7813 21.2363 38.8562C28.4483 36.1123 32.0753 40.5172 32.0753 40.5172C40.4857 39.7393 42.746 48.9277 41.7262 59.2935C40.7065 69.6594 46.4151 71.3204 46.4151 71.3204C42.4622 75.2944 34.1989 75.042 34.1989 75.042V75.9672V78.7321C34.196 79.0875 34.2831 79.4378 34.4523 79.7503C34.6214 80.0629 34.867 80.3275 35.1661 80.5193L35.4184 80.677C36.5432 81.241 37.706 81.7258 38.8982 82.1278C43.2211 79.088 47.7648 76.3751 52.4916 74.0118C52.5893 73.963 52.6716 73.888 52.7291 73.7952C52.7867 73.7024 52.8173 73.5954 52.8175 73.4861V67.3991C51.9133 65.8662 51.2969 64.1809 50.9987 62.4264C50.3049 62.3738 49.3902 61.3751 48.402 57.9058C47.1299 53.4167 48.3284 52.5336 49.4533 52.5336C48.8436 49.9159 47.2876 40.8116 54.0685 36.6695C53.6656 36.3298 53.3412 35.9066 53.1179 35.4292C52.8947 34.9518 52.7778 34.4316 52.7754 33.9045C52.7754 33.9045 60.5025 34.7771 64.2452 34.0097C67.9878 33.2422 72.0143 36.1754 72.6556 39.0034C72.6556 39.0034 80.2355 39.0034 77.2918 52.5442C78.4798 52.5442 79.7624 53.3116 78.4588 57.9058C77.4706 61.3856 76.5559 62.3738 75.8621 62.4264C75.5639 64.1809 74.9475 65.8662 74.0433 67.3991V73.4651C74.0435 73.5743 74.0741 73.6813 74.1317 73.7742C74.1892 73.867 74.2715 73.942 74.3692 73.9907C81.0432 77.3195 87.3384 81.3589 93.1455 86.0387C93.8724 86.6387 94.4556 87.3941 94.8522 88.2491C95.2488 89.1042 95.4488 90.0373 95.4373 90.9798V90.9798Z" />
</svg>
