<svg width="83" height="100" viewBox="0 0 83 100" fill="none" xmlns="http://www.w3.org/2000/svg">
<path d="M30.7838 26.9216H15.1122C13.6699 26.9216 12.5008 28.0924 12.5008 29.5346V45.2029C12.5008 46.6468 13.6716 47.8159 15.1122 47.8159H21.6423C21.6423 60.5737 30.4114 71.2924 42.2309 74.3411L41.7529 77.0566C41.6683 77.5444 41.8634 78.0387 42.2618 78.333C42.6585 78.6257 43.1903 78.6729 43.6309 78.4485L49.2163 75.6192C50.0244 80.5769 54.3268 84.3785 59.5138 84.3785C65.2748 84.3785 69.9594 79.6907 69.9594 73.9314C69.9594 68.6127 65.961 64.2224 60.8179 63.5753V54.3444H63.4293C63.9236 54.3444 64.3756 54.0647 64.5984 53.6224C64.8179 53.1802 64.7724 52.6501 64.4732 52.2533L61.0472 47.6891C66.0797 46.9428 69.9561 42.6062 69.9561 37.3704C69.9577 31.6094 65.2716 26.9216 59.5106 26.9216C54.1919 26.9216 49.8 30.92 49.1545 36.0647H39.922V33.4517C39.922 32.959 39.6423 32.5054 39.2 32.2859C38.7594 32.0631 38.2277 32.1102 37.8325 32.4078L33.3935 35.7395V29.5395C33.3935 28.0924 32.2244 26.9216 30.7838 26.9216ZM64.735 73.933C64.735 76.8127 62.3919 79.1574 59.5138 79.1574C56.6358 79.1574 54.2894 76.8143 54.2894 73.933C54.2894 71.0533 56.6342 68.7103 59.5138 68.7103C62.3935 68.7103 64.735 71.0517 64.735 73.933ZM59.5122 32.1444C62.3919 32.1444 64.7333 34.4891 64.7333 37.3688C64.7333 40.2485 62.3903 42.5899 59.5122 42.5899C56.6342 42.5899 54.2878 40.2468 54.2878 37.3688C54.2878 34.4907 56.6325 32.1444 59.5122 32.1444ZM39.2016 42.455C39.6439 42.2322 39.9236 41.7818 39.9236 41.2875V38.6745H49.1545C49.7382 43.3119 53.3691 47.0046 57.9756 47.6875L54.5496 52.255C54.2537 52.6501 54.2065 53.1785 54.426 53.6224C54.6504 54.0631 55.0992 54.3444 55.5951 54.3444H58.2065V63.5753C53.4846 64.1672 49.7382 67.9184 49.1545 72.6436C49.1252 72.6403 49.0992 72.6257 49.0683 72.6257C49.0618 72.6257 49.0602 72.6257 49.0553 72.6257L45.3545 68.6729C45.0163 68.3119 44.5041 68.1737 44.0293 68.3135C43.5545 68.4566 43.2 68.8517 43.1155 69.3395L42.6878 71.7639C32.0943 68.9379 24.2569 59.2875 24.2569 47.8143H30.787C32.2293 47.8143 33.3984 46.6452 33.3984 45.2013V38.9997L37.839 42.3298C38.2293 42.629 38.7594 42.6761 39.2016 42.455ZM28.1707 32.1444V42.5932H17.7252V32.1444H28.1707Z" fill="#0069D9"/>
<path d="M81.4179 12.039L70.1089 0.98374C69.4634 0.352846 68.5951 0 67.6927 0H3.45691C1.54797 0 0 1.54797 0 3.45691V96.5431C0 98.452 1.54797 100 3.45691 100H79.0016C80.9106 100 82.4585 98.452 82.4585 96.5431V14.5122C82.4585 13.5821 82.0829 12.6894 81.4179 12.039ZM6.91382 93.0862V6.91382H64.2358V14.5122C64.2358 16.4211 65.7837 17.9691 67.6927 17.9691H75.5447V93.0862H6.91382Z" fill="#0069D9"/>
</svg>
